<svg width="36" height="36" viewBox="0 0 36 36" fill="none" xmlns="http://www.w3.org/2000/svg">
<path d="M10.7266 31.65C10.3516 31.275 10.1641 30.831 10.1641 30.318C10.1641 29.805 10.3516 29.3615 10.7266 28.9875L21.7141 18L10.6891 6.975C10.3391 6.625 10.1641 6.1875 10.1641 5.6625C10.1641 5.1375 10.3516 4.6875 10.7266 4.3125C11.1016 3.9375 11.5456 3.75 12.0586 3.75C12.5716 3.75 13.0151 3.9375 13.3891 4.3125L25.9891 16.95C26.1391 17.1 26.2456 17.2625 26.3086 17.4375C26.3716 17.6125 26.4026 17.8 26.4016 18C26.4016 18.2 26.3701 18.3875 26.3071 18.5625C26.2441 18.7375 26.1381 18.9 25.9891 19.05L13.3516 31.6875C13.0016 32.0375 12.5701 32.2125 12.0571 32.2125C11.5441 32.2125 11.1006 32.025 10.7266 31.65Z" fill="black"/>
</svg>
