<svg width="32" height="32" viewBox="0 0 32 32" fill="none" xmlns="http://www.w3.org/2000/svg">
<g opacity="0.7">
<path d="M6.66667 25.3307H8.53334L20.0333 13.8307L18.1667 11.9641L6.66667 23.4641V25.3307ZM25.7333 11.8974L20.0667 6.2974L21.9333 4.43073C22.4445 3.91962 23.0724 3.66406 23.8173 3.66406C24.5622 3.66406 25.1898 3.91962 25.7 4.43073L27.5667 6.2974C28.0778 6.80851 28.3444 7.4254 28.3667 8.14806C28.3889 8.87073 28.1444 9.48717 27.6333 9.9974L25.7333 11.8974ZM5.33334 27.9974C4.95556 27.9974 4.63867 27.8694 4.38267 27.6134C4.12667 27.3574 3.99912 27.041 4 26.6641V22.8974C4 22.7196 4.03334 22.5472 4.1 22.3801C4.16667 22.213 4.26667 22.0632 4.4 21.9307L18.1333 8.1974L23.8 13.8641L10.0667 27.5974C9.93334 27.7307 9.78356 27.8307 9.61734 27.8974C9.45112 27.9641 9.27867 27.9974 9.1 27.9974H5.33334ZM19.1 12.8974L18.1667 11.9641L20.0333 13.8307L19.1 12.8974Z" fill="#9AADE5"/>
</g>
</svg>
