<svg width="48" height="44" viewBox="0 0 48 44" fill="none" xmlns="http://www.w3.org/2000/svg">
<path d="M24.3615 32.2583L16.4073 37.05C16.0559 37.2736 15.6886 37.3694 15.3052 37.3375C14.9219 37.3056 14.5865 37.1778 14.299 36.9542C14.0115 36.7306 13.7879 36.4507 13.6281 36.1147C13.4684 35.7786 13.4365 35.4036 13.5323 34.9896L15.6406 25.9333L8.59689 19.8479C8.27744 19.5604 8.07811 19.2327 7.99889 18.8647C7.91966 18.4967 7.9433 18.1376 8.0698 17.7875C8.19758 17.4361 8.38925 17.1486 8.6448 16.925C8.90036 16.7014 9.25175 16.5576 9.69897 16.4938L18.9948 15.6792L22.5886 7.15C22.7483 6.76667 22.9962 6.47917 23.3322 6.2875C23.6683 6.09583 24.0114 6 24.3615 6C24.7129 6 25.0559 6.09583 25.3907 6.2875C25.7255 6.47917 25.9734 6.76667 26.1344 7.15L29.7281 15.6792L39.024 16.4938C39.4712 16.5576 39.8226 16.7014 40.0781 16.925C40.3337 17.1486 40.5254 17.4361 40.6531 17.7875C40.7809 18.1389 40.8052 18.4986 40.726 18.8666C40.6467 19.2346 40.4468 19.5617 40.1261 19.8479L33.0823 25.9333L35.1906 34.9896C35.2865 35.4049 35.2545 35.7805 35.0948 36.1166C34.9351 36.4526 34.7115 36.7318 34.424 36.9542C34.1365 37.1778 33.8011 37.3056 33.4177 37.3375C33.0344 37.3694 32.667 37.2736 32.3156 37.05L24.3615 32.2583Z" fill="#4B6ED1"/>
</svg>
