<svg width="29" height="29" viewBox="0 0 29 29" fill="none" xmlns="http://www.w3.org/2000/svg">
<path d="M23.0241 5.125H5.97869C4.5666 5.125 3.42188 6.26973 3.42188 7.68182V23.0227C3.42188 24.4348 4.5666 25.5795 5.97869 25.5795H23.0241C24.4362 25.5795 25.581 24.4348 25.581 23.0227V7.68182C25.581 6.26973 24.4362 5.125 23.0241 5.125Z" stroke="black" stroke-width="1.5" stroke-linejoin="round"/>
<path d="M7.68324 3.42188V5.12642M21.3196 3.42188V5.12642M25.581 9.38779H3.42188" stroke="black" stroke-width="1.5" stroke-linecap="round" stroke-linejoin="round"/>
<rect x="5.82812" y="12.0234" width="2.47934" height="2.47934" rx="0.5" fill="black"/>
<rect x="10.7812" y="12.0234" width="2.47934" height="2.47934" rx="0.5" fill="black"/>
<rect x="10.7812" y="15.7422" width="2.47934" height="2.47934" rx="0.5" fill="black"/>
<rect x="15.7422" y="15.7422" width="2.47934" height="2.47934" rx="0.5" fill="black"/>
<rect x="10.7812" y="19.4609" width="2.47934" height="2.47934" rx="0.5" fill="black"/>
<rect x="15.7422" y="19.4609" width="2.47934" height="2.47934" rx="0.5" fill="black"/>
<rect x="20.7031" y="15.7422" width="2.47934" height="2.47934" rx="0.5" fill="black"/>
<rect x="20.7031" y="19.4609" width="2.47934" height="2.47934" rx="0.5" fill="black"/>
</svg>
