<svg width="93" height="89" viewBox="0 0 93 89" fill="none" xmlns="http://www.w3.org/2000/svg">
<rect x="0.84375" width="91.6277" height="88.7644" rx="22.7601" fill="#FF8A44"/>
<circle cx="47.1209" cy="45.1912" r="34.0792" stroke="black" stroke-width="4.75523"/>
<path d="M60.4057 43.0183C60.4495 37.579 55.9616 32.5917 50.402 31.9027L50.0374 31.848C49.7586 31.7926 49.4757 31.7609 49.1916 31.7532C48.0505 31.7532 47.7479 32.5771 47.6677 33.0693C47.6222 33.2737 47.6181 33.4851 47.6557 33.6911C47.6933 33.8971 47.7717 34.0935 47.8865 34.2687C48.2656 34.7973 48.9291 34.8885 49.4614 34.9687C49.6182 34.9906 49.7676 35.0088 49.8879 35.0416C54.8862 36.19 56.5705 38.0019 57.3907 43.1168C57.4126 43.2444 57.4199 43.3975 57.4272 43.5616C57.4637 44.1704 57.5402 45.4427 58.8672 45.4427C58.9766 45.4427 59.0933 45.4354 59.2172 45.4136C60.4531 45.2203 60.413 44.0574 60.3948 43.4996C60.3856 43.3648 60.3856 43.2296 60.3948 43.0949C60.3988 43.0708 60.4012 43.0464 60.4021 43.022L60.4057 43.0183Z" fill="black"/>
<path d="M48.8708 29.9048C49.0166 29.9158 49.1624 29.9267 49.2755 29.9449C57.4782 31.2501 61.2552 35.2603 62.3015 43.7985C62.3197 43.9444 62.3197 44.1193 62.3233 44.3089C62.3343 44.9761 62.3562 46.3614 63.7999 46.3906H63.8436C64.0418 46.4011 64.24 46.3692 64.4248 46.2969C64.6097 46.2246 64.777 46.1136 64.9154 45.9713C65.3638 45.4865 65.3347 44.7683 65.3092 44.185C65.3019 44.0464 65.2946 43.9115 65.2982 43.7949C65.4003 35.0635 58.0798 27.1451 49.6291 26.8534L49.527 26.857C49.4944 26.8618 49.4615 26.8643 49.4286 26.8643C49.3447 26.8643 49.239 26.857 49.1296 26.8498C48.9842 26.8365 48.8382 26.8292 48.6921 26.8279C47.3469 26.8279 47.0917 27.8122 47.0589 28.4028C46.986 29.7627 48.2583 29.8611 48.8708 29.9048ZM61.9041 54.8304C61.7285 54.6928 61.5548 54.5531 61.3828 54.4111C60.4859 53.6674 59.5308 52.982 58.612 52.3185C58.4198 52.1803 58.2278 52.0417 58.036 51.9029C56.8548 51.0498 55.7939 50.6305 54.7914 50.6305C53.4425 50.6305 52.2649 51.4034 51.2915 52.9237C50.8613 53.5945 50.3364 53.9226 49.6947 53.9226C49.2468 53.9066 48.8076 53.7934 48.4078 53.5908C44.598 51.8044 41.8747 49.0702 40.318 45.461C39.567 43.711 39.8076 42.5736 41.1347 41.6439C41.8857 41.1189 43.2856 40.1383 43.1872 38.2607C43.0778 36.128 38.5171 29.7116 36.5958 28.9825C35.7762 28.6732 34.8724 28.6706 34.0511 28.9752C31.8455 29.7408 30.2596 31.0897 29.4685 32.8651C28.7029 34.5859 28.7393 36.602 29.5706 38.7019C31.9658 44.7756 35.3307 50.0691 39.5816 54.4366C43.7377 58.713 48.8489 62.2128 54.7695 64.845C55.3018 65.082 55.8632 65.2096 56.2715 65.3044L56.6179 65.3919C56.6653 65.4055 56.7143 65.4129 56.7637 65.4138H56.8111C59.5964 65.4138 62.9395 62.7889 63.9675 59.7921C64.868 57.1672 63.2238 55.873 61.9041 54.834V54.8304ZM50.103 36.8426C49.6291 36.8535 48.6338 36.879 48.2838 37.9217C48.1234 38.4102 48.1417 38.8331 48.3422 39.1794C48.6375 39.6898 49.2062 39.8466 49.7202 39.9305C51.5868 40.2403 52.5493 41.3085 52.7389 43.2845C52.83 44.2105 53.4315 44.8521 54.2044 44.8521C54.2628 44.8534 54.3213 44.8509 54.3794 44.8448C55.3091 44.7282 55.7575 44.0246 55.7174 42.7486C55.732 41.4142 55.0575 39.9049 53.9091 38.7019C52.7571 37.4915 51.3681 36.8098 50.103 36.8426Z" fill="black"/>
</svg>
