<svg width="92" height="89" viewBox="0 0 92 89" fill="none" xmlns="http://www.w3.org/2000/svg">
<rect x="0.21875" width="91.6277" height="88.7644" rx="22.7601" fill="#FF8A44"/>
<path d="M75.1864 19.3435C71.8273 15.9673 67.8261 13.2905 63.4163 11.469C59.0066 9.64759 54.2764 8.71804 49.5018 8.73459C29.4964 8.73459 13.1916 24.9578 13.1916 44.8632C13.1916 51.2431 14.877 57.4407 18.028 62.9092L12.8984 81.648L32.1344 76.617C37.4472 79.497 43.4196 81.0282 49.5018 81.0282C69.5072 81.0282 85.812 64.805 85.812 44.8996C85.812 35.2386 82.0381 26.1609 75.1864 19.3435ZM49.5018 74.9035C44.0791 74.9035 38.7663 73.4452 34.113 70.711L33.0138 70.0547L21.5821 73.0442L24.6232 61.9614L23.8904 60.8312C20.8777 56.0443 19.278 50.5112 19.2738 44.8632C19.2738 28.3118 32.8306 14.8229 49.4652 14.8229C57.526 14.8229 65.1104 17.9581 70.7896 23.6454C73.6017 26.4305 75.8302 29.7434 77.346 33.3918C78.8617 37.0403 79.6346 40.9518 79.6199 44.8996C79.6932 61.451 66.1363 74.9035 49.5018 74.9035ZM66.0631 52.4462C65.1471 52.0087 60.677 49.8213 59.8709 49.4932C59.0282 49.2015 58.442 49.0557 57.8191 49.9307C57.1962 50.8421 55.4741 52.8836 54.9612 53.4669C54.4482 54.0867 53.8986 54.1596 52.9826 53.6857C52.0666 53.2482 49.1354 52.2639 45.6912 49.2015C42.9799 46.7954 41.1845 43.8424 40.6349 42.931C40.122 42.0196 40.5616 41.5456 41.038 41.0717C41.441 40.6707 41.954 40.0144 42.3936 39.504C42.8333 38.9936 43.0165 38.5926 43.3096 38.0093C43.6028 37.3895 43.4562 36.8792 43.2364 36.4417C43.0165 36.0042 41.1845 31.5565 40.4517 29.7336C39.7189 27.9837 38.9495 28.2025 38.3999 28.166H36.6412C36.0183 28.166 35.0656 28.3847 34.2229 29.2962C33.4168 30.2076 31.0719 32.395 31.0719 36.8427C31.0719 41.2904 34.3328 45.5923 34.7725 46.1756C35.2122 46.7954 41.1845 55.9095 50.2712 59.8104C52.433 60.7583 54.1184 61.3051 55.4375 61.7062C57.5992 62.3988 59.5778 62.2895 61.1533 62.0707C62.912 61.8155 66.5394 59.8833 67.2722 57.7688C68.0416 55.6544 68.0416 53.868 67.7852 53.4669C67.5287 53.0659 66.9791 52.8836 66.0631 52.4462Z" fill="black"/>
</svg>
