<svg width="150" height="150" viewBox="0 0 150 150" fill="none" xmlns="http://www.w3.org/2000/svg">
<circle cx="75" cy="75" r="75" fill="#FFB6B6"/>
<path d="M90.6982 79.4521C91.7744 81.5674 92.3125 83.8125 92.3125 86.1875C92.3125 87.8203 92.0991 89.3975 91.6724 90.9189C91.2456 92.4404 90.6519 93.8599 89.8911 95.1772C89.1304 96.4946 88.2026 97.6914 87.1079 98.7676C86.0132 99.8438 84.8071 100.771 83.4897 101.551C82.1724 102.33 80.7529 102.933 79.2314 103.36C77.71 103.787 76.1328 104 74.5 104C72.8672 104 71.29 103.787 69.7686 103.36C68.2471 102.933 66.8276 102.339 65.5103 101.579C64.1929 100.818 62.9961 99.8901 61.9199 98.7954C60.8438 97.7007 59.916 96.4946 59.1367 95.1772C58.3574 93.8599 57.7544 92.4404 57.3276 90.9189C56.9009 89.3975 56.6875 87.8203 56.6875 86.1875C56.6875 83.8311 57.207 81.5952 58.2461 79.48L74.3608 47L90.6982 79.4521Z" fill="black"/>
</svg>
