<svg width="150" height="150" viewBox="0 0 150 150" fill="none" xmlns="http://www.w3.org/2000/svg">
<circle cx="75" cy="75" r="75" fill="#FFB6B6"/>
<g clip-path="url(#clip0_277_1896)">
<path fill-rule="evenodd" clip-rule="evenodd" d="M72.8328 52.2124C73.9077 51.8094 75.0923 51.8094 76.1672 52.2124L92.7922 58.4467C93.6979 58.7862 94.4783 59.394 95.0291 60.1889C95.58 60.9839 95.8751 61.928 95.875 62.8951V75.6322C95.8751 79.6019 94.7697 83.4931 92.6828 86.8699C90.5959 90.2467 87.6099 92.9757 84.0594 94.751L76.0936 98.7339C75.5988 98.9813 75.0532 99.1102 74.5 99.1102C73.9468 99.1102 73.4012 98.9813 72.9064 98.7339L64.9406 94.751C61.3901 92.9757 58.4041 90.2467 56.3172 86.8699C54.2303 83.4931 53.1249 79.6019 53.125 75.6322V62.8951C53.1249 61.928 53.42 60.9839 53.9709 60.1889C54.5217 59.394 55.3021 58.7862 56.2077 58.4467L72.8328 52.2124Z" fill="black"/>
</g>
<defs>
<clipPath id="clip0_277_1896">
<rect width="57" height="57" fill="white" transform="translate(46 47)"/>
</clipPath>
</defs>
</svg>
