<svg width="28" height="29" viewBox="0 0 28 29" fill="none" xmlns="http://www.w3.org/2000/svg">
<path d="M22.7156 5.04785H5.60387C4.18629 5.04785 3.03711 6.19703 3.03711 7.61461V23.0152C3.03711 24.4328 4.18629 25.5819 5.60387 25.5819H22.7156C24.1332 25.5819 25.2824 24.4328 25.2824 23.0152V7.61461C25.2824 6.19703 24.1332 5.04785 22.7156 5.04785Z" stroke="black" stroke-width="1.50583" stroke-linejoin="round"/>
<path d="M7.31505 3.33643V5.0476M21.0044 3.33643V5.0476M25.2824 9.32554H3.03711" stroke="black" stroke-width="1.50583" stroke-linecap="round" stroke-linejoin="round"/>
<rect x="5.44922" y="11.9707" width="2.48898" height="2.48898" rx="0.501944" fill="black"/>
<rect x="10.4258" y="11.9707" width="2.48898" height="2.48898" rx="0.501944" fill="black"/>
<rect x="10.4258" y="15.7036" width="2.48898" height="2.48898" rx="0.501944" fill="black"/>
<rect x="15.4043" y="15.7036" width="2.48898" height="2.48898" rx="0.501944" fill="black"/>
<rect x="10.4258" y="19.4375" width="2.48898" height="2.48898" rx="0.501944" fill="black"/>
<rect x="15.4043" y="19.4375" width="2.48898" height="2.48898" rx="0.501944" fill="black"/>
<rect x="20.3809" y="15.7036" width="2.48898" height="2.48898" rx="0.501944" fill="black"/>
<rect x="20.3809" y="19.4375" width="2.48898" height="2.48898" rx="0.501944" fill="black"/>
</svg>
