<svg width="48" height="48" viewBox="0 0 48 48" fill="none" xmlns="http://www.w3.org/2000/svg">
<circle cx="24" cy="24" r="24" fill="#38569A"/>
<path d="M29.1406 13.7152L26.473 13.7109C23.476 13.7109 21.5392 15.698 21.5392 18.7736V21.1078H18.857C18.6252 21.1078 18.4375 21.2957 18.4375 21.5275V24.9095C18.4375 25.1413 18.6254 25.329 18.857 25.329H21.5392V33.8629C21.5392 34.0947 21.7269 34.2824 21.9586 34.2824H25.4581C25.6899 34.2824 25.8776 34.0945 25.8776 33.8629V25.329H29.0137C29.2455 25.329 29.4332 25.1413 29.4332 24.9095L29.4345 21.5275C29.4345 21.4162 29.3902 21.3096 29.3116 21.2309C29.2331 21.1521 29.1261 21.1078 29.0148 21.1078H25.8776V19.1291C25.8776 18.178 26.1043 17.6952 27.3432 17.6952L29.1402 17.6945C29.3718 17.6945 29.5595 17.5066 29.5595 17.2751V14.1347C29.5595 13.9033 29.372 13.7156 29.1406 13.7152Z" fill="white"/>
</svg>
