<svg width="48" height="48" viewBox="0 0 48 48" fill="none" xmlns="http://www.w3.org/2000/svg">
<circle cx="24" cy="24" r="23.5" fill="white" stroke="#E8E8E8"/>
<path d="M18.27 26.1418L17.5539 28.8149L14.9367 28.8703C14.1546 27.4196 13.7109 25.7598 13.7109 23.9959C13.7109 22.2903 14.1257 20.6819 14.861 19.2656H14.8616L17.1916 19.6928L18.2123 22.0089C17.9987 22.6317 17.8822 23.3002 17.8822 23.9959C17.8823 24.751 18.0191 25.4744 18.27 26.1418Z" fill="#FBBB00"/>
<path d="M34.1064 22.0781C34.2246 22.7003 34.2862 23.3429 34.2862 23.9996C34.2862 24.736 34.2087 25.4543 34.0612 26.1472C33.5605 28.505 32.2522 30.5638 30.4398 32.0208L30.4392 32.0202L27.5044 31.8705L27.089 29.2776C28.2917 28.5723 29.2315 27.4685 29.7266 26.1472H24.2266V22.0781H29.8068H34.1064Z" fill="#518EF8"/>
<path d="M30.4361 32.0153L30.4367 32.0159C28.674 33.4327 26.4349 34.2804 23.9974 34.2804C20.0804 34.2804 16.6748 32.0911 14.9375 28.8692L18.2708 26.1406C19.1394 28.4588 21.3757 30.1091 23.9974 30.1091C25.1243 30.1091 26.18 29.8045 27.0859 29.2727L30.4361 32.0153Z" fill="#28B446"/>
<path d="M30.5604 16.0789L27.2282 18.8069C26.2907 18.2208 25.1824 17.8823 23.995 17.8823C21.3139 17.8823 19.0358 19.6082 18.2107 22.0096L14.8599 19.2663H14.8594C16.5712 15.9659 20.0197 13.7109 23.995 13.7109C26.4907 13.7109 28.779 14.5999 30.5604 16.0789Z" fill="#F14336"/>
</svg>
