<svg width="58" height="58" viewBox="0 0 58 58" fill="none" xmlns="http://www.w3.org/2000/svg">
<path d="M28.5673 5.19336C15.4245 5.19336 4.75781 15.86 4.75781 29.0029C4.75781 42.1457 15.4245 52.8124 28.5673 52.8124C41.7102 52.8124 52.3769 42.1457 52.3769 29.0029C52.3769 15.86 41.7102 5.19336 28.5673 5.19336ZM39.615 21.3838C39.2578 25.1457 37.7102 34.2886 36.9245 38.5029C36.5911 40.2886 35.9245 40.8838 35.3054 40.9553C33.9245 41.0743 32.8769 40.0505 31.5435 39.1696C29.4483 37.7886 28.2578 36.9315 26.234 35.5981C23.8769 34.0505 25.4007 33.1934 26.7578 31.8124C27.115 31.4553 33.2102 25.9076 33.3292 25.4076C33.3458 25.3319 33.3436 25.2533 33.3228 25.1786C33.3021 25.1039 33.2634 25.0354 33.2102 24.9791C33.0673 24.86 32.8769 24.9076 32.7102 24.9315C32.4959 24.9791 29.1626 27.1934 22.6626 31.5743C21.7102 32.2172 20.8531 32.5505 20.0911 32.5267C19.234 32.5029 17.615 32.0505 16.4007 31.6457C14.9007 31.1695 13.734 30.9076 13.8292 30.0743C13.8769 29.6457 14.4721 29.2172 15.5911 28.7648C22.5435 25.741 27.1626 23.741 29.4721 22.7886C36.0911 20.0267 37.4483 19.5505 38.3531 19.5505C38.5435 19.5505 38.9959 19.5981 39.2816 19.8362C39.5197 20.0267 39.5911 20.2886 39.615 20.4791C39.5911 20.6219 39.6388 21.0505 39.615 21.3838Z" fill="black"/>
</svg>
