<svg width="58" height="58" viewBox="0 0 58 58" fill="none" xmlns="http://www.w3.org/2000/svg">
<path fill-rule="evenodd" clip-rule="evenodd" d="M39.9949 6.68554C32.504 5.01107 24.7358 5.01107 17.2449 6.68554L16.4377 6.86411C14.3306 7.33521 12.3954 8.38122 10.8469 9.88594C9.29851 11.3907 8.19753 13.2952 7.6663 15.3879C5.76748 22.8701 5.76748 30.7081 7.6663 38.1903C8.17291 40.1862 9.19822 42.0126 10.6383 43.4844C12.0783 44.9563 13.882 46.0212 15.8663 46.5713L16.9734 53.1808C17.0088 53.3907 17.0997 53.5872 17.2369 53.75C17.374 53.9128 17.5522 54.0359 17.753 54.1064C17.9538 54.1769 18.1699 54.1922 18.3787 54.1509C18.5874 54.1095 18.7813 54.013 18.9401 53.8713L25.4425 48.0546C30.3237 48.3525 35.2225 47.9621 39.9949 46.8951L40.8044 46.7165C42.9115 46.2454 44.8468 45.1994 46.3952 43.6947C47.9436 42.19 49.0446 40.2854 49.5758 38.1927C51.4744 30.7105 51.4744 22.8725 49.5758 15.3903C49.0444 13.2972 47.9431 11.3925 46.3942 9.88778C44.8453 8.38303 42.9095 7.3372 40.802 6.8665L39.9949 6.68554ZM19.2544 15.1951C18.8119 15.1307 18.3607 15.2197 17.9758 15.4474H17.9425C17.0496 15.9713 16.2449 16.6308 15.5592 17.407C14.9877 18.0665 14.6782 18.7332 14.5973 19.376C14.5496 19.757 14.583 20.1427 14.6949 20.507L14.7377 20.5308C15.3806 22.4189 16.2187 24.2355 17.2425 25.9451C18.5626 28.3462 20.1871 30.567 22.0758 32.5522L22.133 32.6332L22.2234 32.6998L22.2782 32.7641L22.3449 32.8213C24.3371 34.7156 26.563 36.3479 28.9687 37.6784C31.7187 39.176 33.3877 39.8832 34.3901 40.1784V40.1927C34.683 40.2832 34.9496 40.3236 35.2187 40.3236C36.0724 40.2606 36.8804 39.9135 37.5139 39.3379C38.2877 38.6522 38.9425 37.8451 39.452 36.9474V36.9308C39.9306 36.026 39.7687 35.1736 39.0782 34.5951C37.6913 33.3832 36.1916 32.3069 34.5996 31.3808C33.533 30.8022 32.4496 31.1522 32.0115 31.7379L31.0758 32.9189C30.5949 33.5046 29.7234 33.4236 29.7234 33.4236L29.6996 33.4379C23.1973 31.7784 21.4615 25.1951 21.4615 25.1951C21.4615 25.1951 21.3806 24.2998 21.983 23.8427L23.1544 22.8998C23.7163 22.4427 24.1068 21.3617 23.5044 20.2951C22.5844 18.7016 21.5102 17.2024 20.2973 15.8189C20.0327 15.4933 19.6617 15.2715 19.2496 15.1927L19.2544 15.1951ZM30.2401 12.3332C29.9244 12.3332 29.6216 12.4586 29.3983 12.6818C29.1751 12.9051 29.0496 13.2079 29.0496 13.5236C29.0496 13.8394 29.1751 14.1422 29.3983 14.3654C29.6216 14.5887 29.9244 14.7141 30.2401 14.7141C33.252 14.7141 35.752 15.6974 37.7306 17.5832C38.7473 18.6141 39.5401 19.8355 40.0592 21.1736C40.5806 22.5141 40.8187 23.9451 40.7568 25.3784C40.7502 25.5347 40.7745 25.6908 40.8283 25.8378C40.882 25.9847 40.9642 26.1196 41.0701 26.2348C41.284 26.4675 41.5815 26.6056 41.8973 26.6189C42.213 26.6321 42.5211 26.5194 42.7537 26.3055C42.9863 26.0917 43.1245 25.7941 43.1377 25.4784C43.2116 23.7153 42.9189 21.956 42.2782 20.3117C41.6347 18.6597 40.659 17.1573 39.4115 15.8974L39.3877 15.8736C36.933 13.5284 33.8258 12.3332 30.2401 12.3332ZM30.1592 16.2474C29.8434 16.2474 29.5406 16.3729 29.3174 16.5961C29.0941 16.8194 28.9687 17.1222 28.9687 17.4379C28.9687 17.7537 29.0941 18.0565 29.3174 18.2797C29.5406 18.503 29.8434 18.6284 30.1592 18.6284H30.1996C32.3711 18.7832 33.952 19.507 35.0592 20.6951C36.1949 21.9189 36.783 23.4403 36.7377 25.3213C36.7305 25.637 36.8489 25.9427 37.067 26.1711C37.2852 26.3995 37.5851 26.5319 37.9008 26.5391C38.2166 26.5464 38.5222 26.4279 38.7506 26.2098C38.979 25.9917 39.1114 25.6918 39.1187 25.376C39.1758 22.907 38.3806 20.776 36.8044 19.076V19.0713C35.1925 17.3427 32.9806 16.4284 30.3187 16.2498L30.2782 16.2451L30.1592 16.2474ZM30.1139 20.2355C29.9546 20.2215 29.7941 20.2397 29.6419 20.289C29.4898 20.3384 29.3492 20.4179 29.2285 20.5228C29.1077 20.6277 29.0094 20.7558 28.9393 20.8996C28.8692 21.0433 28.8287 21.1997 28.8204 21.3595C28.8121 21.5192 28.836 21.6789 28.8908 21.8292C28.9456 21.9795 29.0301 22.1172 29.1393 22.234C29.2485 22.3509 29.3801 22.4446 29.5263 22.5095C29.6724 22.5744 29.8302 22.6092 29.9901 22.6117C30.9853 22.6641 31.6211 22.9641 32.0211 23.3665C32.4234 23.7713 32.7234 24.4213 32.7782 25.4379C32.7812 25.5977 32.8163 25.7552 32.8814 25.9011C32.9466 26.047 33.0404 26.1783 33.1574 26.2872C33.2743 26.3961 33.412 26.4803 33.5622 26.5348C33.7124 26.5893 33.872 26.6131 34.0316 26.6046C34.1912 26.5961 34.3474 26.5556 34.491 26.4855C34.6345 26.4153 34.7625 26.317 34.8673 26.1964C34.9721 26.0757 35.0515 25.9352 35.1008 25.7833C35.1501 25.6313 35.1684 25.4709 35.1544 25.3117C35.0782 23.8832 34.6306 22.6213 33.7139 21.6927C32.7925 20.7641 31.5377 20.3117 30.1139 20.2355Z" fill="black"/>
</svg>
