<svg width="58" height="58" viewBox="0 0 58 58" fill="none" xmlns="http://www.w3.org/2000/svg">
<path d="M28.7178 5.19336C41.8678 5.19336 52.5273 15.8529 52.5273 29.0029C52.5273 42.1529 41.8678 52.8124 28.7178 52.8124C24.5101 52.8192 20.3765 51.7057 16.7416 49.5862L4.91776 52.8124L8.13681 40.9838C6.0156 37.3478 4.90121 33.2124 4.90824 29.0029C4.90824 15.8529 15.5678 5.19336 28.7178 5.19336ZM20.6035 17.8124L20.1273 17.8315C19.819 17.8502 19.5177 17.9312 19.2416 18.0695C18.9833 18.2158 18.7475 18.3987 18.5416 18.6124C18.2559 18.8815 18.094 19.1148 17.9201 19.341C17.0395 20.486 16.5653 21.8917 16.5725 23.3362C16.5773 24.5029 16.882 25.6386 17.3582 26.7005C18.332 28.8481 19.9344 31.1219 22.0487 33.2291C22.5582 33.7362 23.0582 34.2457 23.5963 34.7195C26.2234 37.0326 29.3541 38.7006 32.7392 39.591L34.0916 39.7981C34.532 39.8219 34.9725 39.7886 35.4154 39.7672C36.1088 39.7314 36.7859 39.5436 37.3987 39.2172C37.7105 39.0566 38.0148 38.8818 38.3106 38.6934C38.3106 38.6934 38.413 38.6267 38.6082 38.4791C38.9297 38.241 39.1273 38.0719 39.394 37.7934C39.5916 37.5886 39.763 37.3481 39.8939 37.0743C40.0797 36.6862 40.2654 35.9457 40.3416 35.3291C40.3987 34.8576 40.382 34.6005 40.3749 34.441C40.3654 34.1862 40.1535 33.9219 39.9225 33.81L38.5368 33.1886C38.5368 33.1886 36.4654 32.2862 35.1987 31.71C35.0662 31.6522 34.9241 31.6191 34.7797 31.6124C34.6168 31.5957 34.4522 31.614 34.2969 31.6662C34.1417 31.7183 33.9994 31.8031 33.8797 31.9148C33.8678 31.91 33.7082 32.0457 31.9868 34.1315C31.888 34.2642 31.7519 34.3646 31.5959 34.4197C31.4398 34.4748 31.2709 34.4822 31.1106 34.441C30.9555 34.3994 30.8035 34.3469 30.6559 34.2838C30.3606 34.16 30.2582 34.1124 30.0559 34.0267C28.6893 33.4304 27.4242 32.6247 26.3059 31.6386C26.0059 31.3767 25.7273 31.091 25.4416 30.8148C24.5049 29.9177 23.6885 28.9029 23.013 27.7957L22.8725 27.5695C22.7716 27.4176 22.69 27.2536 22.6297 27.0815C22.5392 26.7315 22.7749 26.4505 22.7749 26.4505C22.7749 26.4505 23.3535 25.8172 23.6225 25.4743C23.8844 25.141 24.1059 24.8172 24.2487 24.5862C24.5297 24.1338 24.6178 23.6695 24.4701 23.31C23.8035 21.6815 23.113 20.06 22.4035 18.4505C22.263 18.1315 21.8463 17.9029 21.4678 17.8576C21.3392 17.8434 21.2106 17.8291 21.082 17.8195C20.7623 17.8037 20.4419 17.8068 20.1225 17.8291L20.6011 17.81L20.6035 17.8124Z" fill="black"/>
</svg>
