<svg width="28" height="28" viewBox="0 0 28 28" fill="none" xmlns="http://www.w3.org/2000/svg">
<path d="M22.3756 4.44678H5.24834C3.82948 4.44678 2.67926 5.597 2.67926 7.01586V22.4304C2.67926 23.8492 3.82948 24.9995 5.24834 24.9995H22.3756C23.7944 24.9995 24.9447 23.8492 24.9447 22.4304V7.01586C24.9447 5.597 23.7944 4.44678 22.3756 4.44678Z" stroke="white" stroke-width="1.5072" stroke-linejoin="round"/>
<path d="M6.96107 2.73413V4.44685M20.6629 2.73413V4.44685M24.9447 8.72866H2.67926" stroke="white" stroke-width="1.5072" stroke-linecap="round" stroke-linejoin="round"/>
<rect x="5.09265" y="11.3755" width="2.49123" height="2.49123" rx="0.502399" fill="white"/>
<rect x="10.0751" y="11.3755" width="2.49123" height="2.49123" rx="0.502399" fill="white"/>
<rect x="10.0751" y="15.1123" width="2.49123" height="2.49123" rx="0.502399" fill="white"/>
<rect x="15.0576" y="15.1123" width="2.49123" height="2.49123" rx="0.502399" fill="white"/>
<rect x="10.0751" y="18.8491" width="2.49123" height="2.49123" rx="0.502399" fill="white"/>
<rect x="15.0576" y="18.8491" width="2.49123" height="2.49123" rx="0.502399" fill="white"/>
<rect x="20.04" y="15.1123" width="2.49123" height="2.49123" rx="0.502399" fill="white"/>
<rect x="20.04" y="18.8491" width="2.49123" height="2.49123" rx="0.502399" fill="white"/>
</svg>
