<svg width="74" height="74" viewBox="0 0 74 74" fill="none" xmlns="http://www.w3.org/2000/svg">
<path d="M62.4359 38.7576V35.2195L66.8759 31.3345C67.6944 30.6131 68.2315 29.6256 68.3923 28.5466C68.5531 27.4675 68.3273 26.3663 67.7547 25.4376L62.2972 16.1876C61.8917 15.4853 61.3086 14.9019 60.6064 14.496C59.9042 14.0901 59.1076 13.876 58.2966 13.8751C57.7939 13.8713 57.2941 13.9494 56.8166 14.1064L51.1972 16.0026C50.227 15.3579 49.215 14.7785 48.1678 14.2683L46.9884 8.44077C46.777 7.37611 46.1978 6.41974 45.3522 5.73908C44.5067 5.05843 43.4487 4.69685 42.3634 4.71765H31.5409C30.4557 4.69685 29.3977 5.05843 28.5521 5.73908C27.7066 6.41974 27.1274 7.37611 26.9159 8.44077L25.7366 14.2683C24.6819 14.7784 23.6622 15.3578 22.6841 16.0026L17.1803 14.0139C16.6977 13.8882 16.1979 13.8413 15.7003 13.8751C14.8893 13.876 14.0927 14.0901 13.3905 14.496C12.6883 14.9019 12.1052 15.4853 11.6997 16.1876L6.2422 25.4376C5.70243 26.3649 5.50185 27.451 5.67482 28.5099C5.84779 29.5689 6.38355 30.5347 7.19032 31.242L11.5609 35.2426V38.7808L7.19032 42.6658C6.36076 43.378 5.81035 44.3611 5.63678 45.4406C5.46321 46.5202 5.67771 47.6263 6.2422 48.5626L11.6997 57.8126C12.1052 58.515 12.6883 59.0984 13.3905 59.5043C14.0927 59.9102 14.8893 60.1243 15.7003 60.1251C16.2029 60.129 16.7028 60.0509 17.1803 59.8939L22.7997 57.9976C23.7699 58.6424 24.7819 59.2218 25.8291 59.732L27.0084 65.5595C27.2199 66.6242 27.7991 67.5806 28.6446 68.2612C29.4902 68.9419 30.5482 69.3034 31.6334 69.2826H42.5484C43.6337 69.3034 44.6917 68.9419 45.5373 68.2612C46.3828 67.5806 46.962 66.6242 47.1734 65.5595L48.3528 59.732C49.4075 59.2219 50.4272 58.6425 51.4053 57.9976L57.0016 59.8939C57.4791 60.0509 57.979 60.129 58.4816 60.1251C59.2926 60.1243 60.0892 59.9102 60.7914 59.5043C61.4936 59.0984 62.0767 58.515 62.4822 57.8126L67.7547 48.5626C68.2945 47.6354 68.495 46.5493 68.3221 45.4903C68.1491 44.4314 67.6133 43.4656 66.8066 42.7583L62.4359 38.7576ZM58.2966 55.5001L50.3647 52.8176C48.5079 54.3904 46.3858 55.6198 44.0978 56.4483L42.4559 64.7501H31.5409L29.8991 56.5408C27.6292 55.6888 25.5185 54.4615 23.6553 52.9101L15.7003 55.5001L10.2428 46.2501L16.5328 40.7001C16.1052 38.3064 16.1052 35.8558 16.5328 33.462L10.2428 27.7501L15.7003 18.5001L23.6322 21.1826C25.489 19.6099 27.6111 18.3805 29.8991 17.552L31.5409 9.25015H42.4559L44.0978 17.4595C46.3677 18.3115 48.4783 19.5388 50.3416 21.0901L58.2966 18.5001L63.7541 27.7501L57.4641 33.3001C57.8917 35.6939 57.8917 38.1445 57.4641 40.5383L63.7541 46.2501L58.2966 55.5001Z" fill="#73B752"/>
<path d="M37 50.875C34.2558 50.875 31.5732 50.0612 29.2915 48.5366C27.0097 47.012 25.2313 44.8451 24.1812 42.3097C23.131 39.7744 22.8562 36.9846 23.3916 34.2931C23.927 31.6016 25.2484 29.1294 27.1889 27.1889C29.1294 25.2484 31.6016 23.927 34.2931 23.3916C36.9846 22.8562 39.7744 23.131 42.3097 24.1812C44.8451 25.2313 47.012 27.0097 48.5366 29.2915C50.0612 31.5732 50.875 34.2558 50.875 37C50.8936 38.8273 50.5473 40.6398 49.8566 42.3316C49.1659 44.0234 48.1446 45.5603 46.8525 46.8525C45.5603 48.1446 44.0234 49.1659 42.3316 49.8566C40.6398 50.5473 38.8273 50.8936 37 50.875ZM37 27.75C35.7775 27.7215 34.5619 27.9413 33.4268 28.3961C32.2916 28.8509 31.2605 29.5312 30.3959 30.3959C29.5312 31.2605 28.8509 32.2916 28.3961 33.4268C27.9413 34.5619 27.7215 35.7775 27.75 37C27.7215 38.2225 27.9413 39.4381 28.3961 40.5732C28.8509 41.7084 29.5312 42.7395 30.3959 43.6042C31.2605 44.4688 32.2916 45.1491 33.4268 45.6039C34.5619 46.0587 35.7775 46.2785 37 46.25C38.2225 46.2785 39.4381 46.0587 40.5732 45.6039C41.7084 45.1491 42.7395 44.4688 43.6042 43.6042C44.4688 42.7395 45.1491 41.7084 45.6039 40.5732C46.0587 39.4381 46.2785 38.2225 46.25 37C46.2785 35.7775 46.0587 34.5619 45.6039 33.4268C45.1491 32.2916 44.4688 31.2605 43.6042 30.3959C42.7395 29.5312 41.7084 28.8509 40.5732 28.3961C39.4381 27.9413 38.2225 27.7215 37 27.75Z" fill="#73B752"/>
</svg>
