<svg width="32" height="32" viewBox="0 0 32 32" fill="none" xmlns="http://www.w3.org/2000/svg">
<path d="M20.9033 19.4467C25.5567 19.4467 29.33 15.6894 29.33 11.0547C29.33 6.4214 25.5567 2.66406 20.9033 2.66406C16.25 2.66406 12.4793 6.4214 12.4793 11.0547C12.4793 13.2014 13.4593 14.7627 13.4593 14.7627L3.26999 24.9094C2.81266 25.3654 2.17266 26.5494 3.26999 27.6427L4.44599 28.8134C4.90332 29.2041 6.05266 29.7507 6.99266 28.8134L8.36599 27.4481C9.73666 28.8134 11.3047 28.0334 11.8927 27.2521C12.8713 25.8867 11.6967 24.5201 11.6967 24.5201L12.0887 24.1294C13.9687 26.0027 15.6153 24.9107 16.2033 24.1294C17.1833 22.7641 16.2033 21.3974 16.2033 21.3974C15.8113 20.6174 15.0273 20.6174 16.0073 19.6414L17.1833 18.4707C18.1233 19.2507 20.0567 19.4467 20.906 19.4467H20.9033Z" stroke="black" stroke-width="1.5" stroke-linejoin="round"/>
<path d="M23.8461 11.053C23.8443 11.8307 23.5338 12.5759 22.9827 13.1248C22.4316 13.6736 21.6852 13.9811 20.9074 13.9797C20.1297 13.9811 19.3832 13.6736 18.8321 13.1248C18.2811 12.5759 17.9705 11.8307 17.9688 11.053C17.9694 10.6678 18.046 10.2865 18.1941 9.93087C18.3421 9.57525 18.5588 9.25228 18.8317 8.98039C19.1046 8.7085 19.4283 8.49302 19.7845 8.34625C20.1406 8.19948 20.5222 8.1243 20.9074 8.125C21.2926 8.1243 21.6742 8.19948 22.0304 8.34625C22.3865 8.49302 22.7103 8.7085 22.9832 8.98039C23.256 9.25228 23.4727 9.57525 23.6208 9.93087C23.7688 10.2865 23.8454 10.6678 23.8461 11.053Z" stroke="black" stroke-width="1.5"/>
</svg>
