<svg width="68" height="68" viewBox="0 0 68 68" fill="none" xmlns="http://www.w3.org/2000/svg">
<path d="M44.8867 34.31C49.071 36.2877 52.6387 39.3661 55.208 43.2155C57.7773 47.065 59.2515 51.5406 59.4727 56.1635C59.5019 56.587 59.4462 57.0121 59.3088 57.4137C59.1715 57.8154 58.9553 58.1856 58.673 58.5026C58.3906 58.8196 58.0478 59.077 57.6646 59.2597C57.2814 59.4424 56.8656 59.5467 56.4415 59.5665C56.0175 59.5863 55.5938 59.5213 55.1952 59.3751C54.7967 59.2289 54.4313 59.0046 54.1206 58.7153C53.81 58.426 53.5602 58.0776 53.386 57.6905C53.2118 57.3034 53.1167 56.8854 53.1062 56.461C52.8745 51.5502 50.7606 46.9173 47.2034 43.5239C43.6461 40.1305 38.9187 38.2373 34.0025 38.2373C29.0862 38.2373 24.3588 40.1305 20.8016 43.5239C17.2443 46.9173 15.1304 51.5502 14.8987 56.461C14.8415 57.2922 14.461 58.068 13.8389 58.6222C13.2167 59.1763 12.4023 59.4649 11.57 59.426C10.7377 59.3871 9.95371 59.0239 9.38593 58.4141C8.81815 57.8043 8.5117 56.9964 8.53222 56.1635C8.75263 51.541 10.226 47.0654 12.7945 43.2159C15.3631 39.3664 18.9302 36.2879 23.114 34.31C20.4323 32.0732 18.5047 29.0645 17.5934 25.6934C16.6822 22.3223 16.8315 18.7523 18.021 15.469C19.2106 12.1857 21.3827 9.3486 24.2418 7.3435C27.1009 5.33841 30.5082 4.2627 34.0003 4.2627C37.4925 4.2627 40.8998 5.33841 43.7589 7.3435C46.618 9.3486 48.7901 12.1857 49.9796 15.469C51.1692 18.7523 51.3185 22.3223 50.4072 25.6934C49.496 29.0645 47.5684 32.0732 44.8867 34.31ZM44.6275 21.2497C44.6275 18.4318 43.508 15.7293 41.5155 13.7367C39.5229 11.7441 36.8204 10.6247 34.0025 10.6247C31.1845 10.6247 28.482 11.7441 26.4895 13.7367C24.4969 15.7293 23.3775 18.4318 23.3775 21.2497C23.3775 24.0677 24.4969 26.7702 26.4895 28.7627C28.482 30.7553 31.1845 31.8747 34.0025 31.8747C36.8204 31.8747 39.5229 30.7553 41.5155 28.7627C43.508 26.7702 44.6275 24.0677 44.6275 21.2497Z" fill="#73B752"/>
</svg>
