<svg width="84" height="84" viewBox="0 0 84 84" fill="none" xmlns="http://www.w3.org/2000/svg">
<path d="M39.012 24.5805C40.342 22.19 41.007 21 42.001 21C42.995 21 43.66 22.19 44.99 24.5805L45.333 25.1965C45.711 25.8755 45.9 26.2115 46.194 26.4355C46.4915 26.6595 46.859 26.7435 47.594 26.908L48.259 27.062C50.842 27.6465 52.1335 27.937 52.4415 28.924C52.7495 29.9145 51.8675 30.9435 50.107 33.0015L49.652 33.5335C49.1515 34.118 48.8995 34.4085 48.7875 34.7725C48.6755 35.1365 48.714 35.525 48.7875 36.3055L48.8575 37.016C49.1235 39.7635 49.2565 41.139 48.455 41.748C47.65 42.357 46.439 41.8005 44.0205 40.6875L43.3975 40.4005C42.708 40.0855 42.365 39.928 42.001 39.928C41.637 39.928 41.294 40.0855 40.6045 40.4005L39.9815 40.6875C37.563 41.804 36.352 42.357 35.547 41.748C34.742 41.139 34.8785 39.7635 35.1445 37.016L35.2145 36.3055C35.288 35.525 35.3265 35.1365 35.2145 34.7725C35.1025 34.412 34.8505 34.118 34.35 33.5335L33.895 33.0015C32.1345 30.9435 31.2525 29.9145 31.5605 28.924C31.8685 27.937 33.16 27.6465 35.743 27.062L36.408 26.908C37.143 26.7435 37.5105 26.663 37.808 26.4355C38.102 26.2115 38.291 25.8755 38.669 25.1965L39.012 24.5805Z" stroke="#73B752" stroke-width="5"/>
<path d="M66.5 31.5C66.5 34.7174 65.8663 37.9033 64.6351 40.8757C63.4038 43.8482 61.5992 46.5491 59.3241 48.8241C57.0491 51.0992 54.3482 52.9038 51.3757 54.135C48.4033 55.3663 45.2174 56 42 56C38.7826 56 35.5967 55.3663 32.6243 54.135C29.6518 52.9038 26.9509 51.0992 24.6759 48.8241C22.4008 46.5491 20.5962 43.8482 19.365 40.8757C18.1337 37.9033 17.5 34.7174 17.5 31.5C17.5 25.0022 20.0812 18.7705 24.6759 14.1759C29.2705 9.58124 35.5022 7 42 7C48.4978 7 54.7295 9.58124 59.3241 14.1759C63.9188 18.7705 66.5 25.0022 66.5 31.5Z" stroke="#73B752" stroke-width="5"/>
<path d="M25.728 52.5L23.4985 60.6305C21.3005 68.6525 20.2015 72.6635 21.668 74.858C22.1825 75.628 22.872 76.244 23.6735 76.6535C25.9555 77.8155 29.4835 75.978 36.536 72.303C38.881 71.078 40.057 70.469 41.303 70.336C41.766 70.2864 42.233 70.2864 42.696 70.336C43.942 70.469 45.1145 71.0815 47.463 72.303C54.5155 75.978 58.0435 77.8155 60.3255 76.6535C61.127 76.244 61.8165 75.628 62.331 74.858C63.801 72.6635 62.6985 68.6525 60.5005 60.6305L58.271 52.5" stroke="#73B752" stroke-width="5" stroke-linecap="round"/>
</svg>
