<svg width="80" height="80" viewBox="0 0 80 80" fill="none" xmlns="http://www.w3.org/2000/svg">
<path fill-rule="evenodd" clip-rule="evenodd" d="M24.21 10.867C24.4074 9.02703 25.278 7.325 26.6545 6.0882C28.031 4.85139 29.8161 4.16713 31.6667 4.16699H48.3333C50.1838 4.16713 51.969 4.85139 53.3455 6.0882C54.722 7.325 55.5926 9.02703 55.79 10.867C58.3367 10.9203 60.5333 11.0503 62.4133 11.397C64.94 11.8637 67.09 12.7437 68.84 14.497C70.8467 16.5003 71.7067 19.0303 72.1133 22.0303C72.5 24.917 72.5 28.5937 72.5 33.1503V53.517C72.5 58.0737 72.5 61.7503 72.1133 64.6403C71.7067 67.6403 70.8467 70.167 68.84 72.1737C66.8333 74.1803 64.3067 75.0403 61.3067 75.447C58.4167 75.8337 54.74 75.8337 50.1833 75.8337H29.8167C25.26 75.8337 21.5833 75.8337 18.6933 75.447C15.6933 75.0403 13.1667 74.1803 11.16 72.1737C9.15333 70.167 8.29333 67.6403 7.89 64.6403C7.5 61.7503 7.5 58.0737 7.5 53.517V33.1503C7.5 28.5937 7.5 24.917 7.89 22.027C8.29 19.027 9.15667 16.5003 11.16 14.4937C12.91 12.7437 15.06 11.8603 17.5867 11.397C19.4667 11.0503 21.6667 10.9203 24.21 10.867ZM24.2167 15.867C21.8233 15.9203 19.9767 16.0403 18.49 16.3137C16.6033 16.6603 15.5067 17.2203 14.6967 18.0303C13.7733 18.9537 13.1733 20.247 12.8433 22.697C12.5067 25.2103 12.5 28.5503 12.5 33.3337V53.3337C12.5 58.117 12.5067 61.4537 12.8433 63.9737C13.1733 66.4203 13.7767 67.7137 14.6967 68.637C15.62 69.5603 16.9133 70.1603 19.3633 70.4903C21.8767 70.827 25.2167 70.8337 30 70.8337H50C54.7833 70.8337 58.12 70.827 60.64 70.4903C63.0867 70.1603 64.38 69.557 65.3033 68.637C66.2267 67.7137 66.8267 66.4203 67.1567 63.9703C67.4933 61.4537 67.5 58.117 67.5 53.3337V33.3337C67.5 28.5503 67.4933 25.2103 67.1567 22.6937C66.8267 20.247 66.2233 18.9537 65.3033 18.0303C64.49 17.2203 63.3967 16.6637 61.51 16.3137C60.0233 16.0403 58.1767 15.9203 55.7833 15.8703C55.5701 17.6965 54.6934 19.3807 53.32 20.603C51.9465 21.8253 50.1719 22.5005 48.3333 22.5003H31.6667C29.8276 22.5004 28.0526 21.8247 26.679 20.6017C25.3055 19.3788 24.4292 17.6938 24.2167 15.867ZM31.6667 9.16699C31.0036 9.16699 30.3677 9.43038 29.8989 9.89922C29.4301 10.3681 29.1667 11.004 29.1667 11.667V15.0003C29.1667 16.3803 30.2867 17.5003 31.6667 17.5003H48.3333C48.9964 17.5003 49.6323 17.2369 50.1011 16.7681C50.5699 16.2993 50.8333 15.6634 50.8333 15.0003V11.667C50.8333 11.004 50.5699 10.3681 50.1011 9.89922C49.6323 9.43038 48.9964 9.16699 48.3333 9.16699H31.6667ZM20.8333 35.0003C20.8333 34.3373 21.0967 33.7014 21.5656 33.2326C22.0344 32.7637 22.6703 32.5003 23.3333 32.5003H25C25.663 32.5003 26.2989 32.7637 26.7678 33.2326C27.2366 33.7014 27.5 34.3373 27.5 35.0003C27.5 35.6634 27.2366 36.2992 26.7678 36.7681C26.2989 37.2369 25.663 37.5003 25 37.5003H23.3333C22.6703 37.5003 22.0344 37.2369 21.5656 36.7681C21.0967 36.2992 20.8333 35.6634 20.8333 35.0003ZM32.5 35.0003C32.5 34.3373 32.7634 33.7014 33.2322 33.2326C33.7011 32.7637 34.337 32.5003 35 32.5003H56.6667C57.3297 32.5003 57.9656 32.7637 58.4344 33.2326C58.9033 33.7014 59.1667 34.3373 59.1667 35.0003C59.1667 35.6634 58.9033 36.2992 58.4344 36.7681C57.9656 37.2369 57.3297 37.5003 56.6667 37.5003H35C34.337 37.5003 33.7011 37.2369 33.2322 36.7681C32.7634 36.2992 32.5 35.6634 32.5 35.0003ZM20.8333 46.667C20.8333 46.0039 21.0967 45.3681 21.5656 44.8992C22.0344 44.4304 22.6703 44.167 23.3333 44.167H25C25.663 44.167 26.2989 44.4304 26.7678 44.8992C27.2366 45.3681 27.5 46.0039 27.5 46.667C27.5 47.33 27.2366 47.9659 26.7678 48.4348C26.2989 48.9036 25.663 49.167 25 49.167H23.3333C22.6703 49.167 22.0344 48.9036 21.5656 48.4348C21.0967 47.9659 20.8333 47.33 20.8333 46.667ZM32.5 46.667C32.5 46.0039 32.7634 45.3681 33.2322 44.8992C33.7011 44.4304 34.337 44.167 35 44.167H56.6667C57.3297 44.167 57.9656 44.4304 58.4344 44.8992C58.9033 45.3681 59.1667 46.0039 59.1667 46.667C59.1667 47.33 58.9033 47.9659 58.4344 48.4348C57.9656 48.9036 57.3297 49.167 56.6667 49.167H35C34.337 49.167 33.7011 48.9036 33.2322 48.4348C32.7634 47.9659 32.5 47.33 32.5 46.667ZM20.8333 58.3337C20.8333 57.6706 21.0967 57.0347 21.5656 56.5659C22.0344 56.097 22.6703 55.8337 23.3333 55.8337H25C25.663 55.8337 26.2989 56.097 26.7678 56.5659C27.2366 57.0347 27.5 57.6706 27.5 58.3337C27.5 58.9967 27.2366 59.6326 26.7678 60.1014C26.2989 60.5703 25.663 60.8337 25 60.8337H23.3333C22.6703 60.8337 22.0344 60.5703 21.5656 60.1014C21.0967 59.6326 20.8333 58.9967 20.8333 58.3337ZM32.5 58.3337C32.5 57.6706 32.7634 57.0347 33.2322 56.5659C33.7011 56.097 34.337 55.8337 35 55.8337H56.6667C57.3297 55.8337 57.9656 56.097 58.4344 56.5659C58.9033 57.0347 59.1667 57.6706 59.1667 58.3337C59.1667 58.9967 58.9033 59.6326 58.4344 60.1014C57.9656 60.5703 57.3297 60.8337 56.6667 60.8337H35C34.337 60.8337 33.7011 60.5703 33.2322 60.1014C32.7634 59.6326 32.5 58.9967 32.5 58.3337Z" fill="#73B752"/>
</svg>
