<svg width="48" height="48" viewBox="0 0 48 48" fill="none" xmlns="http://www.w3.org/2000/svg">
<path fill-rule="evenodd" clip-rule="evenodd" d="M48 24C48 37.2548 37.2548 48 24 48C10.7452 48 0 37.2548 0 24C0 10.7452 10.7452 0 24 0C37.2548 0 48 10.7452 48 24ZM36.7243 41.3321C33.1616 43.9521 28.7615 45.5 24 45.5C19.2333 45.5 14.8288 43.9488 11.264 41.3236C11.4134 41.1205 11.499 40.8755 11.5067 40.62C11.6059 37.3724 12.9658 34.2911 15.298 32.029C17.6303 29.7669 20.7517 28.5018 24.0008 28.5018C27.2499 28.5018 30.3713 29.7669 32.7036 32.029C35.0359 34.2911 36.3957 37.3724 36.495 40.62C36.4963 40.7864 36.5308 40.9509 36.5965 41.1039C36.6311 41.1844 36.674 41.2609 36.7243 41.3321ZM38.9227 39.4779C38.656 36.866 37.7079 34.3628 36.1649 32.2232C34.4124 29.7932 31.9728 27.9433 29.16 26.9117C30.7805 25.8089 32.0049 24.2157 32.6533 22.3659C33.3018 20.5161 33.3402 18.5071 32.763 16.6339C32.1857 14.7606 31.0232 13.1217 29.4461 11.9578C27.8689 10.7938 25.9602 10.1661 24 10.1667C22.0398 10.1661 20.1311 10.7938 18.5539 11.9578C16.9768 13.1217 15.8143 14.7606 15.237 16.6339C14.6598 18.5071 14.6982 20.5161 15.3467 22.3659C15.9951 24.2157 17.2195 25.8089 18.84 26.9117C16.0275 27.9432 13.588 29.7929 11.8356 32.2225C10.2923 34.3623 9.34396 36.8656 9.0773 39.4779C5.02229 35.5674 2.5 30.0783 2.5 24C2.5 12.1259 12.1259 2.5 24 2.5C35.8741 2.5 45.5 12.1259 45.5 24C45.5 30.0783 42.9777 35.5674 38.9227 39.4779ZM19.286 24.0474C18.0357 22.7971 17.3333 21.1014 17.3333 19.3333C17.3333 17.5652 18.0357 15.8695 19.286 14.6193C20.5362 13.369 22.2319 12.6667 24 12.6667C25.7681 12.6667 27.4638 13.369 28.714 14.6193C29.9643 15.8695 30.6667 17.5652 30.6667 19.3333C30.6667 21.1014 29.9643 22.7971 28.714 24.0474C27.4638 25.2976 25.7681 26 24 26C22.2319 26 20.5362 25.2976 19.286 24.0474Z" fill="white"/>
</svg>
