<svg width="60" height="60" viewBox="0 0 60 60" fill="none" xmlns="http://www.w3.org/2000/svg">
<path d="M11.2496 5.62553C10.9368 5.61888 10.6259 5.67474 10.3349 5.78986C10.044 5.90497 9.77903 6.07702 9.55549 6.2959C9.33195 6.51478 9.15437 6.7761 9.03315 7.06453C8.91194 7.35295 8.84954 7.66267 8.84961 7.97553V45.563C8.84954 45.8759 8.91194 46.1856 9.03315 46.474C9.15437 46.7625 9.33195 47.0238 9.55549 47.2427C9.77903 47.4615 10.044 47.6336 10.3349 47.7487C10.6259 47.8638 10.9368 47.9197 11.2496 47.913H13.5996V54.3755L26.5246 47.913H48.7496C49.3729 47.913 49.9706 47.6654 50.4113 47.2247C50.852 46.784 51.0996 46.1863 51.0996 45.563V7.97553C51.0996 7.35227 50.852 6.75454 50.4113 6.31383C49.9706 5.87312 49.3729 5.62553 48.7496 5.62553H11.2496ZM17.1246 13.8505H24.1246C24.4304 13.8684 24.719 13.9979 24.9356 14.2145C25.1522 14.4311 25.2818 14.7197 25.2996 15.0255C25.2601 16.6281 25.5274 18.2234 26.0871 19.7255C26.3332 20.2276 26.389 20.8019 26.2442 21.3419C26.0994 21.882 25.7638 22.3513 25.2996 22.663L22.7996 25.163C23.892 27.2929 25.3184 29.2341 27.0246 30.913C28.7198 32.6092 30.6628 34.038 32.7871 35.1505L35.2871 32.6505C35.5988 32.1863 36.0681 31.8508 36.6082 31.706C37.1483 31.5612 37.7225 31.617 38.2246 31.863C39.7268 32.4227 41.3221 32.69 42.9246 32.6505C43.2304 32.6684 43.519 32.7979 43.7356 33.0145C43.9522 33.2311 44.0817 33.5197 44.0996 33.8255V40.8755C44.0817 41.1813 43.9522 41.4699 43.7356 41.6865C43.519 41.9031 43.2304 42.0327 42.9246 42.0505C35.8427 41.7696 29.1272 38.8288 24.1179 33.8149C19.1086 28.801 16.174 22.0827 15.8996 15.0005C15.9233 14.6992 16.0554 14.4166 16.2714 14.2052C16.4875 13.9937 16.7728 13.8677 17.0746 13.8505H17.1246Z" stroke="white" stroke-width="3" stroke-linecap="round" stroke-linejoin="round"/>
</svg>
