<svg width="60" height="60" viewBox="0 0 60 60" fill="none" xmlns="http://www.w3.org/2000/svg">
<path d="M44.9667 34.7488L36.8091 30.6704C36.5682 30.5506 36.2999 30.4964 36.0314 30.5135C35.7628 30.5305 35.5035 30.618 35.2796 30.7673L31.2824 33.431C29.2588 32.3951 27.6124 30.7489 26.5765 28.7255L29.243 24.7312C29.3923 24.5073 29.4798 24.248 29.4968 23.9795C29.5138 23.7109 29.4597 23.4427 29.3399 23.2018L25.2611 15.0449C25.1342 14.7897 24.9386 14.575 24.6963 14.425C24.454 14.2751 24.1746 14.1958 23.8896 14.1961C21.3204 14.1961 18.8564 15.2166 17.0397 17.0331C15.223 18.8497 14.2024 21.3134 14.2024 23.8824C14.2092 29.6942 16.5211 35.2662 20.6311 39.3758C24.7411 43.4854 30.3135 45.7972 36.1259 45.8039C38.6951 45.8039 41.1591 44.7834 42.9758 42.9669C44.7925 41.1503 45.8131 38.6866 45.8131 36.1176C45.8132 35.8334 45.734 35.5547 45.5845 35.3129C45.435 35.0711 45.2211 34.8758 44.9667 34.7488ZM36.1259 42.7451C31.1247 42.739 26.3299 40.7498 22.7935 37.2136C19.257 33.6775 17.2676 28.8832 17.2615 23.8824C17.2617 22.2828 17.8403 20.7373 18.8908 19.531C19.9412 18.3247 21.3925 17.5389 22.9769 17.3186L26.2043 23.7727L23.5556 27.7441C23.4165 27.9536 23.3311 28.1941 23.3071 28.4444C23.2831 28.6948 23.3211 28.9471 23.418 29.1792C24.8244 32.5229 27.4846 35.1829 30.8286 36.5892C31.0607 36.686 31.3131 36.7241 31.5635 36.7001C31.8138 36.6761 32.0544 36.5907 32.2638 36.4516L36.2356 33.8031L42.6903 37.0302C42.47 38.6145 41.6841 40.0657 40.4777 41.116C39.2713 42.1663 37.7256 42.745 36.1259 42.7451ZM30.0078 4C25.5002 3.99905 21.0697 5.16982 17.1511 7.39742C13.2325 9.62503 9.96037 12.833 7.65568 16.7065C5.351 20.58 4.09295 24.9861 4.00496 29.4925C3.91697 33.9988 5.00206 38.4506 7.15378 42.4112L4.19155 51.2996C3.98184 51.9284 3.95141 52.6031 4.10366 53.2482C4.25592 53.8933 4.58484 54.4833 5.05357 54.952C5.5223 55.4207 6.1123 55.7496 6.75746 55.9018C7.40262 56.054 8.07743 56.0236 8.70627 55.8139L17.5955 52.852C21.0752 54.7401 24.9401 55.8088 28.8956 55.9766C32.851 56.1444 36.7926 55.4069 40.4197 53.8202C44.0468 52.2335 47.2637 49.8396 49.825 46.821C52.3864 43.8024 54.2245 40.2389 55.1994 36.4021C56.1742 32.5653 56.26 28.5566 55.4502 24.6816C54.6404 20.8066 52.9563 17.1677 50.5264 14.0424C48.0966 10.917 44.985 8.38771 41.4291 6.64735C37.8732 4.907 33.9668 4.00153 30.0078 4ZM30.0078 52.9412C25.9747 52.9421 22.0126 51.8801 18.5209 49.862C18.2881 49.7282 18.0246 49.657 17.7561 49.6555C17.5915 49.6565 17.4281 49.6831 17.2717 49.7345L7.7401 52.9106C7.65027 52.9405 7.55387 52.9449 7.4617 52.9231C7.36954 52.9014 7.28525 52.8544 7.21829 52.7875C7.15133 52.7205 7.10434 52.6362 7.08259 52.5441C7.06084 52.4519 7.06519 52.3555 7.09514 52.2657L10.2715 42.7451C10.3402 42.5394 10.3644 42.3214 10.3424 42.1056C10.3205 41.8898 10.2528 41.6812 10.144 41.4935C7.61329 37.1222 6.59605 32.0379 7.25012 27.0295C7.90419 22.0211 10.193 17.3685 13.7615 13.7935C17.33 10.2186 21.9786 7.92115 26.9862 7.25763C31.9939 6.59411 37.0805 7.60162 41.457 10.1238C45.8335 12.6461 49.2552 16.542 51.1913 21.2072C53.1274 25.8725 53.4696 31.0462 52.1648 35.9257C50.86 40.8053 47.9812 45.1178 43.975 48.1944C39.9688 51.271 35.0592 52.9395 30.0078 52.9412Z" fill="white"/>
</svg>
